HIERARCHY
ROOT Hips
{
	OFFSET 0.00000 0.00000 0.00000
	CHANNELS 6 Xposition Yposition Zposition Zrotation Yrotation Xrotation 
	JOINT LHipJoint
	{
		OFFSET 0 0 0
		CHANNELS 3 Zrotation Yrotation Xrotation
		JOINT LeftUpLeg
		{
			OFFSET 1.44361 -1.63093 0.70831
			CHANNELS 3 Zrotation Yrotation Xrotation
			JOINT LeftLeg
			{
				OFFSET 2.20103 -6.04728 0.00000
				CHANNELS 3 Zrotation Yrotation Xrotation
				JOINT LeftFoot
				{
					OFFSET 2.54154 -6.98283 0.00000
					CHANNELS 3 Zrotation Yrotation Xrotation
					JOINT LeftToeBase
					{
						OFFSET 0.05971 -0.16406 1.77582
						CHANNELS 3 Zrotation Yrotation Xrotation
						End Site
						{
							OFFSET 0.00000 -0.00000 0.90832
						}
					}
				}
			}
		}
	}
	JOINT RHipJoint
	{
		OFFSET 0 0 0
		CHANNELS 3 Zrotation Yrotation Xrotation
		JOINT RightUpLeg
		{
			OFFSET -1.65838 -1.63093 0.70830
			CHANNELS 3 Zrotation Yrotation Xrotation
			JOINT RightLeg
			{
				OFFSET -2.26926 -6.23475 0.00000
				CHANNELS 3 Zrotation Yrotation Xrotation
				JOINT RightFoot
				{
					OFFSET -2.34808 -6.45129 0.00000
					CHANNELS 3 Zrotation Yrotation Xrotation
					JOINT RightToeBase
					{
						OFFSET -0.18633 -0.51195 1.68539
						CHANNELS 3 Zrotation Yrotation Xrotation
						End Site
						{
							OFFSET -0.00000 -0.00000 0.88927
						}
					}
				}
			}
		}
	}
	JOINT LowerBack
	{
		OFFSET 0 0 0
		CHANNELS 3 Zrotation Yrotation Xrotation
		JOINT Spine
		{
			OFFSET -0.10393 2.01691 0.06920
			CHANNELS 3 Zrotation Yrotation Xrotation
			JOINT Spine1
			{
				OFFSET 0.04092 2.01302 -0.05283
				CHANNELS 3 Zrotation Yrotation Xrotation
				JOINT Neck
				{
					OFFSET 0 0 0
					CHANNELS 3 Zrotation Yrotation Xrotation
					JOINT Neck1
					{
						OFFSET -0.02870 1.58978 -0.03113
						CHANNELS 3 Zrotation Yrotation Xrotation
						JOINT Head
						{
							OFFSET 0.11532 1.54326 -0.29195
							CHANNELS 3 Zrotation Yrotation Xrotation
							End Site
							{
								OFFSET 0.04056 1.59999 -0.09535
							}
						}
					}
				}
				JOINT LeftShoulder
				{
					OFFSET 0 0 0
					CHANNELS 3 Zrotation Yrotation Xrotation
					JOINT LeftArm
					{
						OFFSET 3.30641 1.15764 0.01104
						CHANNELS 3 Zrotation Yrotation Xrotation
						JOINT LeftForeArm
						{
							OFFSET 4.63208 -0.00000 0.00000
							CHANNELS 3 Zrotation Yrotation Xrotation
							JOINT LeftHand
							{
								OFFSET 3.41924 -0.00000 -0.00000
								CHANNELS 3 Zrotation Yrotation Xrotation
								JOINT LeftFingerBase
								{
									OFFSET 0 0 0
									CHANNELS 3 Zrotation Yrotation Xrotation
									JOINT LeftHandIndex1
									{
										OFFSET 0.62537 -0.00000 -0.00000
										CHANNELS 3 Zrotation Yrotation Xrotation
										End Site
										{
											OFFSET 0.50419 -0.00000 -0.00000
										}
									}
								}
								JOINT LThumb
								{
									OFFSET 0 0 0
									CHANNELS 3 Zrotation Yrotation Xrotation
									End Site
									{
										OFFSET 0.51189 -0.00000 0.51189
									}
								}
							}
						}
					}
				}
				JOINT RightShoulder
				{
					OFFSET 0 0 0
					CHANNELS 3 Zrotation Yrotation Xrotation
					JOINT RightArm
					{
						OFFSET -3.78081 1.02180 -0.16609
						CHANNELS 3 Zrotation Yrotation Xrotation
						JOINT RightForeArm
						{
							OFFSET -4.40640 -0.00000 -0.00000
							CHANNELS 3 Zrotation Yrotation Xrotation
							JOINT RightHand
							{
								OFFSET -3.44675 -0.00000 0.00000
								CHANNELS 3 Zrotation Yrotation Xrotation
								JOINT RightFingerBase
								{
									OFFSET 0 0 0
									CHANNELS 3 Zrotation Yrotation Xrotation
									JOINT RightHandIndex1
									{
										OFFSET -0.51367 -0.00000 -0.00000
										CHANNELS 3 Zrotation Yrotation Xrotation
										End Site
										{
											OFFSET -0.41414 -0.00000 -0.00000
										}
									}
								}
								JOINT RThumb
								{
									OFFSET 0 0 0
									CHANNELS 3 Zrotation Yrotation Xrotation
									End Site
									{
										OFFSET -0.42046 -0.00000 0.42046
									}
								}
							}
						}
					}
				}
			}
		}
	}
}
MOTION
Frames: 6
Frame Time: .0083333
9.0032 17.3029 38.7834 0 0 0 0 0 0 -21 0 0 0 0 0 0 0 0 0 0 0 0 0 0 21 0 0 0 0 0 0 0 0 0 0 0 0 0 0 0 0 0 0 0 0 0 0 -16 0 0 21 0 0 11 0 0 0 -8 0 0 0 0 0 0 0 0 0 0 0 0 0 0 0 0 0 0 0 0 8 0 0 0 0 0 0 0 0 0 0 0 0 0 0 0 0 0
9.0032 17.3029 38.7834 179.5400 -0.8450 -169.8230 0.0000 0.0000 0.0000 -14.6249 -12.0761 -3.5222 0.0685 1.6885 4.6456 0.9799 0.8753 -19.0418 8.2870 -16.3264 -53.5901 0.0000 0.0000 0.0000 12.7006 8.9796 -5.7377 -0.1526 -2.5172 6.9372 -0.5126 -2.1348 -14.4686 -2.3974 9.6490 -27.8474 -5.0093 1.7166 -8.0483 1.6377 2.6714 0.5230 4.8479 1.1668 4.7570 -3.1016 -1.6081 -8.3623 7.1634 -5.5985 25.6890 2.2970 -2.8674 9.7700 -0.0000 -0.0000 0.0000 -89.9398 -1.4151 19.6915 8.3242 -14.0771 -1.0296 -0.0000 -0.0000 27.8930 23.6103 -18.7259 -7.9880 -7.1250 0.0000 -0.0000 -2.9598 9.6993 2.4221 -0.0000 -0.0000 0.0000 93.4559 -10.0133 -12.9526 -14.4012 23.3053 -2.9850 0.0000 0.0000 17.5258 -25.2619 -37.9951 16.1980 7.1250 -0.0000 -0.0000 14.1392 -70.3366 -8.6141
9.0379 17.3044 38.7827 179.4490 -0.9343 -169.8680 0.0000 0.0000 0.0000 -14.6097 -12.1409 -3.3459 0.0632 1.6222 4.4626 0.9803 0.8273 -19.0268 8.2188 -16.2779 -53.3471 0.0000 0.0000 0.0000 12.7395 8.7734 -5.8257 -0.1591 -2.5700 7.0838 -0.5165 -1.9915 -14.4443 -2.3722 9.6018 -27.6967 -4.8236 1.5959 -7.9572 1.7330 2.4848 0.5889 4.8205 1.0751 4.8001 -3.3055 -1.7483 -8.5680 7.5112 -5.8469 25.6325 2.4229 -2.9602 9.8217 0.0000 0.0000 0.0000 -90.1433 -1.6625 19.2266 8.1605 -13.8127 -0.9901 -0.0000 -0.0000 28.4718 23.6120 -18.7238 -7.9878 -7.1250 0.0000 -0.0000 -2.9585 9.7013 2.4210 0.0000 0.0000 0.0000 93.2327 -9.9224 -13.0781 -14.4149 23.3247 -2.9904 0.0000 0.0000 17.4108 -25.4422 -38.2378 16.4069 7.1250 -0.0000 -0.0000 14.2033 -70.6265 -8.7448
9.0754 17.3042 38.7815 179.2000 -1.0519 -169.9060 0.0000 0.0000 0.0000 -14.8166 -12.3479 -3.0716 0.0573 1.5448 4.2492 0.9793 0.9082 -19.0485 8.1940 -16.2601 -53.2584 0.0000 0.0000 0.0000 12.6081 8.5444 -5.8459 -0.1619 -2.5927 7.1469 -0.5209 -1.8892 -14.4491 -2.3581 9.5752 -27.6119 -4.7538 1.4370 -7.8153 1.7923 2.2567 0.5922 4.8126 0.9647 4.7504 -3.3209 -1.7109 -8.5702 7.6087 -5.8330 25.6410 2.4607 -2.9501 9.8277 -0.0000 -0.0000 0.0000 -90.3201 -1.8453 18.7991 7.9733 -13.5096 -0.9459 -0.0000 -0.0000 29.0770 23.6282 -18.6291 -7.9554 -7.1250 0.0000 -0.0000 -2.9398 9.7999 2.3997 -0.0000 -0.0000 0.0000 92.9629 -10.0233 -12.9894 -14.4570 23.3843 -3.0071 0.0000 0.0000 17.0645 -25.5863 -38.0981 16.4593 7.1250 -0.0000 -0.0000 13.8310 -70.5408 -8.4864
9.1182 17.3045 38.7803 179.1470 -1.2151 -169.8270 0.0000 0.0000 0.0000 -14.6863 -12.4823 -3.0685 0.0546 1.5073 4.1458 0.9621 1.1780 -18.9934 8.3746 -16.3880 -53.9012 0.0000 0.0000 0.0000 12.7369 8.4929 -5.9351 -0.1655 -2.6206 7.2243 -0.5270 -1.9322 -14.5500 -2.3698 9.5972 -27.6820 -4.4648 1.2911 -7.7807 1.9071 2.0236 0.5578 4.7417 0.8550 4.7270 -3.1788 -1.7292 -8.4920 7.5849 -5.8692 25.5117 2.4236 -2.9597 9.7645 -0.0000 -0.0000 0.0000 -90.4151 -1.9932 18.8613 7.8407 -13.2943 -0.9152 -0.0000 -0.0000 29.2789 23.5405 -18.5560 -7.8931 -7.1250 0.0000 -0.0000 -2.9905 9.8912 2.4358 -0.0000 -0.0000 0.0000 92.6577 -10.0513 -13.1510 -14.4346 23.3527 -2.9982 0.0000 0.0000 16.9349 -25.4052 -38.1570 16.3533 7.1250 -0.0000 -0.0000 14.1504 -70.5376 -8.6840
9.1650 17.3060 38.7730 179.2700 -1.3379 -169.7660 0.0000 0.0000 0.0000 -14.3337 -12.5772 -3.1637 0.0573 1.5446 4.2487 0.9617 1.3846 -19.0766 8.5471 -16.5073 -54.5102 0.0000 0.0000 0.0000 13.0982 8.4473 -5.9968 -0.1678 -2.6387 7.2743 -0.5330 -1.8854 -14.6033 -2.3804 9.6172 -27.7458 -4.0166 1.1136 -7.7912 2.1523 1.7245 0.5206 4.7117 0.7120 4.7326 -3.2496 -1.6785 -8.4111 7.6349 -5.7902 25.4108 2.4625 -2.9289 9.7105 -0.0000 0.0000 0.0000 -90.6604 -2.0065 19.0458 7.7958 -13.2213 -0.9049 -0.0000 -0.0000 29.1150 23.4223 -18.1994 -7.7053 -7.1250 0.0000 -0.0000 -3.0378 10.2893 2.4499 -0.0000 0.0000 0.0000 92.1766 -10.1218 -13.2457 -14.3906 23.2903 -2.9808 0.0000 0.0000 16.9141 -25.5165 -38.3246 16.4887 7.1250 -0.0000 -0.0000 14.2141 -70.7333 -8.7851
